<?xml version="1.0" standalone="no"?>
<!DOCTYPE svg PUBLIC "-//W3C//DTD SVG 20010904//EN"
 "http://www.w3.org/TR/2001/REC-SVG-20010904/DTD/svg10.dtd">
<svg version="1.0" xmlns="http://www.w3.org/2000/svg"
 width="962.000000pt" height="1394.000000pt" viewBox="0 0 962.000000 1394.000000"
 preserveAspectRatio="xMidYMid meet">

<g transform="translate(0.000000,1394.000000) scale(0.100000,-0.100000)"
fill="#000000" stroke="none">
<path d="M4979 13245 c-3 -2 -135 -5 -295 -6 -366 -2 -488 -11 -523 -37 -71
-52 -93 -139 -45 -177 21 -17 26 -31 31 -80 4 -49 -4 -96 -41 -251 -49 -203
-58 -301 -31 -324 8 -7 35 -15 60 -18 51 -5 66 -19 42 -37 -11 -8 -17 -26 -17
-50 0 -46 -25 -217 -45 -305 -18 -78 -46 -244 -75 -435 -11 -77 -25 -167 -30
-200 -23 -144 -40 -264 -44 -315 -2 -30 -20 -174 -39 -320 -34 -253 -54 -497
-38 -456 5 13 10 16 15 8 4 -6 -9 -25 -29 -43 -50 -46 -74 -88 -78 -140 -2
-24 -14 -66 -26 -94 -75 -165 65 -404 555 -950 185 -207 270 -279 391 -335 94
-44 128 -51 253 -56 92 -3 127 0 177 15 77 23 165 73 222 126 135 124 485 599
613 831 86 156 102 202 102 284 -1 83 -18 129 -60 156 -14 10 -38 43 -54 75
-38 75 -100 125 -100 82 0 -15 -2 -16 -10 -3 -5 8 -9 26 -9 40 0 23 1 23 9 5
8 -20 9 -20 9 1 2 48 -56 513 -73 584 -3 14 -17 102 -31 195 -39 259 -93 566
-119 679 -58 248 -86 425 -86 551 0 76 -2 85 -21 96 -17 9 -19 13 -8 20 8 5
26 9 42 9 15 0 36 9 48 21 25 25 25 27 -37 257 -71 262 -76 283 -68 327 5 22
8 44 8 48 1 4 12 13 26 20 32 17 33 68 0 117 -34 52 -64 71 -133 81 -64 9
-430 13 -438 4z m-475 -128 c22 -4 36 -30 15 -26 -8 1 -23 -1 -34 -5 -60 -22
-59 -25 5 -27 l65 -2 -79 -9 c-43 -5 -94 -7 -113 -3 -33 6 -34 8 -27 38 3 18
9 36 11 40 4 7 106 3 157 -6z m41 -152 c11 -2 25 -4 31 -4 7 -1 14 -10 17 -21
5 -21 -3 -25 -63 -35 -19 -3 -48 -8 -65 -12 -16 -4 -38 -6 -47 -4 -10 1 -18
-2 -18 -7 0 -6 -6 -12 -13 -15 -10 -4 -13 2 -9 20 3 18 1 24 -7 19 -16 -10
-15 39 2 52 26 21 63 22 172 7z m-116 -147 c13 -21 13 -22 -3 -9 -15 13 -19
13 -27 0 -10 -16 -12 -8 -3 15 8 22 17 20 33 -6z m1 -49 c0 -6 -4 -7 -10 -4
-5 3 -10 11 -10 16 0 6 5 7 10 4 6 -3 10 -11 10 -16z m-26 -5 c9 -22 8 -24 -9
-18 -8 4 -15 12 -15 20 0 19 16 18 24 -2z m0 -39 c10 -7 15 -18 12 -23 -3 -5
1 -17 8 -28 12 -16 12 -20 -5 -32 -26 -18 -24 -30 6 -27 18 3 28 -4 39 -26 8
-16 10 -29 5 -29 -21 0 -7 -29 21 -40 16 -7 34 -18 40 -25 12 -14 3 -48 -11
-39 -5 3 -9 1 -9 -4 0 -6 -14 -7 -35 -2 -28 6 -37 4 -52 -13 -10 -12 -12 -17
-4 -12 10 6 13 4 9 -6 -4 -11 3 -16 25 -17 17 -2 33 -4 35 -6 2 -2 17 0 33 4
16 5 31 5 34 1 6 -11 -71 -21 -149 -21 -73 1 -101 17 -90 52 4 13 8 41 9 63 3
56 24 127 36 120 5 -4 9 -3 8 2 -6 33 2 45 26 41 27 -6 30 -1 15 22 -9 13 -11
13 -20 0 -13 -20 -13 -4 0 21 8 15 7 19 -5 19 -8 0 -15 5 -15 10 0 14 11 12
34 -5z m44 -40 c-3 -3 -9 2 -12 12 -6 14 -5 15 5 6 7 -7 10 -15 7 -18z m85
-372 c84 -7 89 -24 6 -20 l-62 2 -1 -33 c-1 -27 3 -32 22 -32 12 0 22 -4 22
-10 0 -5 -9 -10 -20 -10 -18 0 -25 -10 -21 -32 0 -5 -3 -8 -8 -8 -14 0 0 -41
21 -62 10 -10 18 -13 18 -8 0 6 9 10 21 10 11 0 18 3 16 8 -3 4 -1 16 4 27 6
15 8 10 8 -21 1 -23 8 -57 16 -75 l14 -34 2 30 c1 17 1 35 -1 40 -1 6 3 6 9
-1 11 -10 14 -116 6 -194 -3 -25 -6 -129 -7 -232 -1 -104 -5 -188 -10 -188 -5
0 -4 -10 3 -22 9 -17 9 -20 -3 -15 -12 4 -13 -3 -7 -41 4 -26 6 -54 4 -62 -8
-44 -29 -1122 -34 -1737 -1 -109 -4 -143 -14 -143 -14 0 -24 7 -212 149 l-138
105 8 330 c4 182 8 337 10 346 2 8 6 71 10 140 3 69 8 141 11 160 2 19 6 78 9
130 4 86 10 148 20 220 2 14 6 43 9 65 3 22 8 74 11 115 3 41 8 86 10 100 2
14 7 52 10 85 3 33 7 76 10 95 2 19 7 58 10 85 3 28 11 79 16 115 15 94 17
107 20 190 2 41 0 81 -4 87 -5 7 -3 30 2 50 5 21 11 77 12 126 2 48 7 87 12
87 5 0 5 6 -1 13 -6 6 -8 24 -5 39 7 36 42 43 166 31z m22 -93 c-3 -5 -10 -10
-16 -10 -5 0 -9 5 -9 10 0 6 7 10 16 10 8 0 12 -4 9 -10z m1505 -2280 c16 -59
-1 -133 -55 -241 -108 -214 -494 -741 -653 -891 -130 -123 -275 -171 -443
-148 -204 28 -306 102 -603 435 -306 343 -416 486 -492 636 -44 87 -54 136
-42 196 11 54 28 80 28 43 0 -20 64 -166 80 -180 10 -9 50 -69 50 -75 0 -7
116 -150 167 -205 23 -25 55 -62 72 -84 17 -21 43 -50 57 -65 15 -14 38 -41
51 -58 14 -18 29 -30 34 -27 5 3 8 2 7 -3 -4 -13 103 -133 114 -127 4 3 7 1 6
-4 -3 -9 169 -191 219 -232 45 -38 84 -61 93 -55 5 3 17 -3 27 -15 10 -11 24
-20 33 -20 8 0 27 -7 42 -14 18 -10 30 -11 34 -5 3 6 17 8 30 5 68 -18 129
-16 191 5 34 11 63 25 63 30 0 5 9 9 20 9 11 0 20 5 20 11 0 14 41 48 59 49 8
0 12 2 10 4 -3 3 31 42 74 88 77 82 158 182 287 357 36 48 77 102 93 120 15
18 27 39 27 46 0 8 5 17 12 21 7 4 8 3 4 -4 -15 -24 2 -11 19 14 9 15 12 23 6
20 -7 -5 -9 -1 -5 8 3 9 12 16 20 16 8 0 14 9 14 20 0 10 9 24 21 30 11 7 18
18 15 25 -3 8 4 21 14 28 11 8 17 17 14 20 -4 4 1 9 10 13 9 3 14 10 11 14 -3
5 -1 11 5 15 24 15 80 181 80 241 l1 29 24 -28 c13 -15 29 -45 35 -67z m-1177
-657 c-7 -2 -19 -2 -25 0 -7 3 -2 5 12 5 14 0 19 -2 13 -5z"/>
<path d="M4485 12940 c-4 -6 11 -10 41 -10 26 0 44 3 41 7 -12 11 -75 14 -82
3z"/>
<path d="M4440 12581 c0 -5 5 -13 10 -16 6 -3 10 -2 10 4 0 5 -4 13 -10 16 -5
3 -10 2 -10 -4z"/>
<path d="M4429 10028 c-1 -13 -3 -34 -5 -48 -2 -23 -6 -205 -5 -287 0 -18 5
-33 11 -33 6 0 10 12 10 28 0 15 2 102 4 195 2 92 0 167 -5 167 -5 0 -10 -10
-10 -22z"/>
<path d="M4424 9630 c0 -13 4 -16 10 -10 7 7 7 13 0 20 -6 6 -10 3 -10 -10z"/>
<path d="M1935 10260 c-7 -11 -43 -308 -50 -405 -3 -49 -8 -115 -11 -145 -10
-95 -6 -694 5 -858 37 -530 100 -957 204 -1392 29 -121 32 -123 181 -115 157
9 393 55 666 130 78 22 147 20 159 -4 7 -13 4 -77 -9 -207 -52 -519 -62 -1039
-35 -1799 15 -412 17 -634 12 -1395 -5 -662 -11 -957 -22 -1100 -8 -107 -15
-204 -15 -216 0 -31 69 -104 150 -160 l70 -48 0 -95 c0 -53 -5 -263 -12 -467
-11 -332 -10 -386 5 -510 9 -77 19 -166 22 -199 6 -59 39 -171 56 -189 5 -6 9
-23 9 -39 0 -23 16 -46 71 -103 112 -115 269 -187 514 -235 231 -45 425 -72
460 -63 12 3 34 0 49 -6 24 -9 385 -26 436 -21 8 1 103 4 210 7 107 3 227 8
265 11 39 2 97 7 130 9 70 5 183 19 275 33 36 6 81 12 100 14 19 2 55 10 80
16 25 7 61 16 80 21 129 32 173 44 235 67 203 75 317 170 351 292 8 31 24 77
35 103 27 67 59 436 48 568 -5 52 -11 248 -15 435 -4 212 -10 342 -16 346 -6
4 5 12 24 18 19 6 81 39 136 71 76 45 103 67 108 86 4 14 -1 62 -9 107 -41
209 -57 552 -64 1382 -4 488 -2 746 7 915 39 720 27 1164 -55 1990 -14 140
-23 272 -19 293 3 21 16 50 28 64 41 48 113 44 546 -27 223 -37 297 -44 364
-36 l55 7 16 72 c111 484 195 1067 225 1562 23 377 5 841 -42 1063 l-11 52
-56 0 c-56 0 -384 -20 -388 -24 -1 -1 4 -69 12 -151 32 -356 37 -506 33 -830
-4 -240 -11 -385 -27 -530 -21 -192 -74 -566 -106 -745 -9 -47 -27 -152 -41
-235 -14 -82 -29 -154 -34 -159 -5 -5 -39 -3 -82 5 -85 16 -80 -8 -42 204 177
999 205 1437 139 2200 -21 235 -21 235 -56 235 -29 0 -30 0 -24 -47 3 -27 12
-129 20 -228 8 -99 17 -212 21 -252 10 -121 6 -640 -6 -778 -18 -220 -39 -391
-75 -615 -30 -188 -48 -294 -106 -615 -7 -38 -15 -73 -19 -78 -6 -6 -133 17
-151 28 -6 4 44 302 75 450 39 181 98 618 117 855 13 169 6 717 -11 870 -5 47
-14 150 -20 230 -6 80 -13 154 -16 164 -6 18 -17 19 -283 12 -292 -7 -656 -24
-681 -32 -10 -4 -8 -8 10 -17 59 -29 85 -173 55 -297 -38 -155 -193 -417 -456
-770 -212 -285 -314 -389 -445 -454 -113 -56 -174 -69 -304 -68 -273 3 -452
100 -705 383 -528 588 -694 857 -654 1060 14 73 56 148 97 175 18 13 29 25 25
27 -15 9 -270 46 -388 57 -131 11 -504 14 -553 4 -28 -6 -30 -9 -36 -68 -34
-337 -49 -943 -32 -1246 18 -313 67 -655 162 -1129 25 -128 42 -237 37 -241
-4 -4 -38 -15 -75 -23 l-67 -15 -10 32 c-5 17 -13 51 -16 76 -4 25 -27 144
-50 265 -114 578 -155 964 -155 1460 0 238 19 633 38 812 7 66 6 73 -10 79
-11 3 -25 1 -32 -5 -32 -27 -61 -588 -53 -1051 8 -488 46 -813 168 -1445 23
-115 42 -214 43 -220 1 -11 -136 -47 -146 -37 -17 18 -149 704 -173 899 -22
185 -35 311 -40 388 -3 50 -10 140 -15 200 -21 245 -7 881 25 1155 7 63 10
118 7 122 -10 9 -442 66 -447 58z m2285 -7930 c85 -7 161 -14 169 -16 9 -3 11
-12 6 -32 -5 -15 -9 -57 -10 -93 -1 -36 -5 -71 -9 -77 -3 -6 -2 -13 4 -17 12
-7 6 -98 -9 -138 -6 -14 -8 -36 -5 -49 3 -13 6 -30 6 -38 0 -8 7 -22 15 -31
19 -23 28 -86 14 -102 -6 -8 -10 -43 -10 -78 3 -127 -5 -175 -22 -148 -7 11
-9 10 -9 -3 0 -10 -6 -18 -12 -19 -83 -4 -106 -24 -42 -35 35 -6 52 -20 38
-33 -11 -11 -104 -19 -104 -9 0 4 -15 6 -32 4 -18 -2 -43 -4 -55 -5 -30 -1
-29 -16 4 -47 22 -20 25 -28 16 -42 -6 -9 -16 -16 -22 -15 -6 2 -11 -2 -11 -7
0 -6 -7 -10 -15 -10 -9 0 -15 -9 -15 -22 0 -23 -20 -63 -20 -42 0 6 -7 11 -15
11 -8 0 -12 -3 -10 -7 8 -12 -14 -33 -37 -35 -12 -1 -23 -7 -23 -12 0 -6 -2
-14 -5 -17 -9 -8 -86 -15 -97 -8 -26 17 -96 339 -107 487 -2 28 5 90 15 139
15 73 17 132 16 338 -1 137 -1 250 0 252 2 1 56 -5 120 -15 65 -9 188 -22 273
-29z m-396 -1074 c4 -18 3 -44 -2 -56 -8 -21 -10 -19 -20 21 -6 24 -14 57 -17
74 -6 29 -6 29 13 12 11 -10 23 -33 26 -51z m16 -142 c0 -8 -4 -12 -10 -9 -5
3 -10 13 -10 21 0 8 5 12 10 9 6 -3 10 -13 10 -21z m-376 -29 c-4 -8 -8 -15
-10 -15 -2 0 -4 7 -4 15 0 8 4 15 10 15 5 0 7 -7 4 -15z m446 -60 c10 -11 9
-18 -4 -30 -9 -9 -16 -21 -16 -26 0 -5 -4 -9 -10 -9 -5 0 -10 15 -10 33 0 48
16 61 40 32z m134 -3 c8 -13 -5 -82 -15 -82 -5 0 -9 20 -9 45 0 41 11 58 24
37z m161 -54 c-8 -39 -22 -57 -29 -37 -17 54 -13 66 22 68 10 1 12 -8 7 -31z
m341 -20 c-3 -13 -6 -29 -6 -35 0 -21 -18 -15 -25 7 -7 21 9 50 27 50 6 0 8
-10 4 -22z m170 -44 c-3 -9 -10 -12 -16 -9 -14 9 -13 38 3 54 10 10 13 8 15
-9 2 -12 1 -28 -2 -36z m364 15 c0 -11 -4 -18 -10 -14 -5 3 -7 12 -3 20 7 21
13 19 13 -6z m-1035 -138 c68 -14 80 -19 50 -19 -35 -1 -136 14 -232 34 -18 3
-33 9 -33 13 0 9 93 -3 215 -28z"/>
<path d="M4183 1475 c0 -8 4 -12 9 -9 4 3 8 9 8 15 0 5 -4 9 -8 9 -5 0 -9 -7
-9 -15z"/>
<path d="M4236 1458 c3 -5 10 -6 15 -3 13 9 11 12 -6 12 -8 0 -12 -4 -9 -9z"/>
<path d="M4070 1290 c0 -5 5 -10 10 -10 6 0 10 5 10 10 0 6 -4 10 -10 10 -5 0
-10 -4 -10 -10z"/>
</g>
</svg>
