<?xml version="1.0" standalone="no"?>
<!DOCTYPE svg PUBLIC "-//W3C//DTD SVG 20010904//EN"
 "http://www.w3.org/TR/2001/REC-SVG-20010904/DTD/svg10.dtd">
<svg version="1.0" xmlns="http://www.w3.org/2000/svg"
 width="189.000000pt" height="198.000000pt" viewBox="0 0 189.000000 198.000000"
 preserveAspectRatio="xMidYMid meet">

<g transform="translate(0.000000,198.000000) scale(0.100000,-0.100000)"
fill="#000000" stroke="none">
<path d="M760 1965 c-462 -95 -782 -528 -756 -1020 7 -146 36 -257 101 -390
121 -248 337 -434 587 -505 95 -28 298 -38 403 -21 199 32 377 129 522 284 80
85 114 136 168 249 75 155 89 223 89 433 1 211 -14 287 -90 444 -129 271 -361
458 -644 522 -101 22 -281 24 -380 4z m210 -355 c0 -5 -7 -10 -15 -10 -8 0
-15 5 -15 10 0 6 7 10 15 10 8 0 15 -4 15 -10z m-370 -547 c4 -183 -1 -310
-10 -288 l-8 20 -7 -20 c-4 -11 -10 -29 -14 -40 -5 -12 -11 30 -15 105 -4 69
-13 137 -20 151 -8 16 -10 32 -5 40 17 28 8 38 -46 50 -59 13 -76 33 -22 26
17 -2 39 0 47 4 8 4 23 10 33 13 9 3 20 14 23 23 3 10 11 31 17 47 l11 30 7
-27 c4 -14 8 -75 9 -134z m726 108 c21 -46 24 -49 80 -63 l59 -14 -52 -13
c-51 -13 -52 -14 -52 -49 0 -126 -10 -384 -15 -389 -3 -4 -7 6 -7 20 -2 32 -1
28 -22 100 -14 45 -18 102 -20 258 -2 109 0 199 3 199 3 0 15 -22 26 -49z"/>
</g>
</svg>
